# xmcd
#
# Track frame offsets:
#	150
#	17649
#	34962
#	53505
#	70780
#	89783
#	103746
#	122318
#	141960
#	159867
#	177655
#	196593
#	219231
#	236863
#	255905
#	273452
#	291605
#	321268
#
# Disc length: 4298 seconds
#
# Revision: 2
# Processed by: cddbd v1.5.2PL0 Copyright (c) Steve Scherf et al.
# Submitted via: audiograbber 1.83.01
#
DISCID=0610c812
DTITLE=Chartbuster  Greatest Country Hits 2003 Vol.1 - Chartbuster  Greatest Co
DTITLE=untry Hits 2003 Vol.1
DYEAR=2003
DGENRE=Country
TTITLE0=Alan Jacksom - That'd be allright
TTITLE1=Wynnona - What The World Needs\\n
TTITLE2=Diamond Rio - I Believe
TTITLE3=George Strait - Cowboys Like Us
TTITLE4=Darryl Worley - Have You Forgotten
TTITLE5=Shania Twain - UP
TTITLE6=Keith Urban - Raining On Sunday
TTITLE7=Tim McGraw - She's My Kind Of Rain
TTITLE8=Chris Cagle - What A Beautiful Day
TTITLE9=Jessica Andrews - Theres More to Me Than You
TTITLE10=Rascal Flatts - I Melt
TTITLE11=Craig Morgan - Almost Home
TTITLE12=Billy Currington - Walk A Little Straighter
TTITLE13=Pat Green - Wave On Wave
TTITLE14=Lisa Marie Presley - Lights Out
TTITLE15=Buddy Jewell - Help Pour Out The Rain
TTITLE16=Alan Jackson - It's Five Oclock Somewhere
TTITLE17=none - na
EXTD=Chartbuster ESP482
EXTT0=
EXTT1=
EXTT2=
EXTT3=
EXTT4=
EXTT5=
EXTT6=
EXTT7=
EXTT8=
EXTT9=
EXTT10=
EXTT11=
EXTT12=
EXTT13=
EXTT14=
EXTT15=
EXTT16=
EXTT17=
PLAYORDER=
